<?xml version="1.0" encoding="UTF-8" standalone="no"?>
<!DOCTYPE svg PUBLIC "-//W3C//DTD SVG 1.1//EN" "http://www.w3.org/Graphics/SVG/1.1/DTD/svg11.dtd">
<svg width="100%" height="100%" viewBox="0 0 49 59" version="1.1" xmlns="http://www.w3.org/2000/svg" xmlns:xlink="http://www.w3.org/1999/xlink" xml:space="preserve" xmlns:serif="http://www.serif.com/" style="fill-rule:evenodd;clip-rule:evenodd;stroke-linejoin:round;stroke-miterlimit:2;">
    <path id="Pfad_1" d="M22.121,14.283C22.121,14.283 29.14,15.938 30.463,16.266C35.583,17.34 39.302,21.866 39.363,27.097C39.495,34.329 35.056,40.281 30.763,43.712C24.482,48.733 18.369,49.281 15.074,48.84C5.274,47.53 4.615,38.96 4.605,37.861C4.49,35.578 4.872,33.297 5.725,31.176C5.959,30.568 6.16,29.053 4.682,29.27C3.486,29.631 2.512,30.507 2.026,31.658C0.815,34.451 0.137,37.445 0.026,40.487C0.013,40.725 0,41 0,41.3L0,41.409C0.021,46.315 2.886,58.667 19.02,58.477C24.466,58.412 39.852,54.983 47.144,37.892C48.488,34.546 49.032,30.932 48.73,27.339C47.077,13.739 35.018,12.287 33.96,12.129L25.223,10.808C24.463,12.184 23.404,13.372 22.123,14.283M16.3,12.237C15.817,13.104 15.558,14.375 16.814,14.699C18.866,15.226 21.629,13.134 22.345,12.271C24.652,9.494 22.711,8.871 22.174,8.84C22.091,8.836 22.007,8.834 21.923,8.834C19.089,8.834 16.772,11.385 16.3,12.234M30.387,0L30.26,0C28.44,0.135 26.644,0.495 24.913,1.072C20.648,2.382 12.013,6.827 7.446,14.057C3.079,21.233 6.328,24.119 7.459,24.911L14.559,29.874C14.308,30.541 13.681,34.043 17.248,34.609C20.207,35.079 22.788,32.559 23.248,31.978C24.333,30.781 24.897,29.199 24.813,27.586C24.706,26.49 24.018,25.532 23.013,25.081C20.907,24.093 18.451,25.436 18.37,25.481L10.67,21.408C9.596,20.779 8.19,19.694 8.794,16.608C8.947,15.839 9.95,11.927 15.794,7.524C16.477,7.008 21.883,2.992 27.644,2.856C28.808,2.737 29.89,2.196 30.684,1.337C31.079,0.919 31.505,0 30.387,0" style="fill:rgb(246,52,64);fill-rule:nonzero;"/>
</svg>
