<svg xmlns="http://www.w3.org/2000/svg" xmlns:xlink="http://www.w3.org/1999/xlink" width="278.4" height="58.491" viewBox="0 0 278.4 58.491"><defs><clipPath id="clip-path"><rect id="Rechteck_2" data-name="Rechteck 2" width="278.4" height="58.491" fill="none"></rect></clipPath></defs><g id="Gruppe_1" data-name="Gruppe 1" clip-path="url(#clip-path)"><path id="Pfad_1" data-name="Pfad 1" d="M22.121,14.283s7.019,1.655,8.342,1.983a11.2,11.2,0,0,1,8.9,10.831c.132,7.232-4.307,13.184-8.6,16.615-6.281,5.021-12.394,5.569-15.689,5.128-9.8-1.31-10.459-9.88-10.469-10.979a15.8,15.8,0,0,1,1.12-6.685c.234-.608.435-2.123-1.043-1.906a4.2,4.2,0,0,0-2.656,2.388,24.419,24.419,0,0,0-2,8.829C.013,40.725,0,41,0,41.3v.109c.021,4.906,2.886,17.258,19.02,17.068,5.446-.065,20.832-3.494,28.124-20.585A23.116,23.116,0,0,0,48.73,27.339c-1.653-13.6-13.712-15.052-14.77-15.21l-8.737-1.321a10.493,10.493,0,0,1-3.1,3.475M16.3,12.237c-.483.867-.742,2.138.514,2.462,2.052.527,4.815-1.565,5.531-2.428,2.307-2.777.366-3.4-.171-3.431q-.125-.006-.251-.006c-2.834,0-5.151,2.551-5.623,3.4M30.387,0c-.04,0-.084,0-.127,0a22.042,22.042,0,0,0-5.347,1.072c-4.265,1.31-12.9,5.755-17.467,12.985-4.367,7.176-1.118,10.062.013,10.854l7.1,4.963c-.251.667-.878,4.169,2.689,4.735,2.959.47,5.54-2.05,6-2.631a6.067,6.067,0,0,0,1.565-4.392,3.074,3.074,0,0,0-1.8-2.505c-2.106-.988-4.562.355-4.643.4l-7.7-4.073c-1.074-.629-2.48-1.714-1.876-4.8.153-.769,1.156-4.681,7-9.084.683-.516,6.089-4.532,11.85-4.668a4.806,4.806,0,0,0,3.04-1.519C31.079.919,31.505,0,30.387,0" transform="translate(0 0)" fill="#F63440"></path><path id="Pfad_2" data-name="Pfad 2" d="M30.879,27.442a.325.325,0,0,1-.144-.487l1-2.115a.278.278,0,0,1,.456-.115,9.91,9.91,0,0,0,5.406,1.8,4.459,4.459,0,0,0,2.717-.744,2.615,2.615,0,0,0,1.057-2.2c0-1.316-1.057-2.06-2.457-2.6-1.632-.658-3.548-.972-5.377-2A4.621,4.621,0,0,1,30.85,14.66a4.758,4.758,0,0,1,1.86-3.918,8.469,8.469,0,0,1,5.318-1.488,12.231,12.231,0,0,1,5.949,1.431.34.34,0,0,1,.142.485l-1,2.088a.324.324,0,0,1-.487.144,9.678,9.678,0,0,0-4.775-1.373,4.311,4.311,0,0,0-2.8.773,2.084,2.084,0,0,0-.83,1.716c0,1.258,1.057,1.914,2.66,2.457,1.831.658,3.889.974,5.575,2.06a4.845,4.845,0,0,1,2.4,4.288,5.415,5.415,0,0,1-2.117,4.434,8.2,8.2,0,0,1-5.12,1.515,12.62,12.62,0,0,1-6.747-1.831" transform="translate(33.427 10.083)" fill="#F63440"></path><path id="Pfad_3" data-name="Pfad 3" d="M47.7,9.377a6.883,6.883,0,0,1,4.576,1.429,6.379,6.379,0,0,1,2.345,5.176,6.45,6.45,0,0,1-2.543,5.32,7.138,7.138,0,0,1-4.52,1.285h-4.89v5.92a.347.347,0,0,1-.343.343H39.809a.349.349,0,0,1-.345-.343V9.749a.376.376,0,0,1,.345-.372Zm2.232,3.546a4.454,4.454,0,0,0-2.66-.744h-4.6v7.606h4.376a5.138,5.138,0,0,0,2.8-.658,3.6,3.6,0,0,0,1.515-3.145,3.457,3.457,0,0,0-1.429-3.059" transform="translate(43.001 10.217)" fill="#F63440"></path><path id="Pfad_4" data-name="Pfad 4" d="M58.287,29.271a10.012,10.012,0,1,1,10.3-9.98,10.022,10.022,0,0,1-10.3,9.98m0-17.014a6.9,6.9,0,0,0-6.921,7.034,6.907,6.907,0,1,0,13.812,0,6.872,6.872,0,0,0-6.892-7.034" transform="translate(52.293 10.083)" fill="#F63440"></path><path id="Pfad_5" data-name="Pfad 5" d="M70.551,21.388l4.775,6.862c.171.284.228.6-.171.6H72.379a.652.652,0,0,1-.685-.372l-4.6-6.806H62.8v6.835a.347.347,0,0,1-.343.343H59.94a.348.348,0,0,1-.343-.343V9.749a.376.376,0,0,1,.343-.372h8.037a8.165,8.165,0,0,1,4.831,1.2A5.84,5.84,0,0,1,75.1,15.525a5.641,5.641,0,0,1-2.23,4.689,6.144,6.144,0,0,1-2.315,1.174M62.8,12.094v6.892h4.633a5.659,5.659,0,0,0,3-.6,3.05,3.05,0,0,0,1.4-2.831,3.08,3.08,0,0,0-1.344-2.831,4.969,4.969,0,0,0-2.8-.629Z" transform="translate(64.939 10.217)" fill="#F63440"></path><path id="Pfad_6" data-name="Pfad 6" d="M84.024,9.377a.355.355,0,0,1,.343.372v2.115a.33.33,0,0,1-.343.343H77.847v16.3a.354.354,0,0,1-.372.343H74.989a.331.331,0,0,1-.345-.343v-16.3h-6.2a.329.329,0,0,1-.343-.343V9.749a.354.354,0,0,1,.343-.372Z" transform="translate(74.201 10.217)" fill="#F63440"></path><path id="Pfad_7" data-name="Pfad 7" d="M83.752,9.377a.376.376,0,0,1,.345.372V28.508a.349.349,0,0,1-.345.343H81.236a.347.347,0,0,1-.343-.343V9.749a.374.374,0,0,1,.343-.372Z" transform="translate(88.144 10.217)" fill="#F63440"></path><path id="Pfad_8" data-name="Pfad 8" d="M104.747,28.508a.331.331,0,0,1-.345.343H102a.347.347,0,0,1-.343-.343V14.952l-5.291,8.893a.557.557,0,0,1-.57.345H94a.536.536,0,0,1-.573-.345l-5.4-8.893V28.508a.331.331,0,0,1-.345.343h-2.4a.345.345,0,0,1-.343-.343V9.749a.373.373,0,0,1,.343-.372h2.543a.569.569,0,0,1,.631.372L94.823,20.5,101.2,9.749a.617.617,0,0,1,.658-.372H104.4a.356.356,0,0,1,.345.372Z" transform="translate(92.544 10.217)" fill="#F63440"></path><path id="Pfad_9" data-name="Pfad 9" d="M105.18,9.377a6.9,6.9,0,0,1,4.578,1.429,6.383,6.383,0,0,1,2.342,5.176,6.45,6.45,0,0,1-2.543,5.32,7.135,7.135,0,0,1-4.52,1.285h-4.89v5.92a.347.347,0,0,1-.343.343H97.29a.345.345,0,0,1-.343-.343V9.749a.373.373,0,0,1,.343-.372Zm2.232,3.546a4.45,4.45,0,0,0-2.66-.744h-4.6v7.606h4.376a5.138,5.138,0,0,0,2.8-.658,3.6,3.6,0,0,0,1.515-3.145,3.457,3.457,0,0,0-1.429-3.059" transform="translate(105.637 10.217)" fill="#F63440"></path><path id="Pfad_10" data-name="Pfad 10" d="M115.769,29.271a10.012,10.012,0,1,1,10.3-9.98,10.023,10.023,0,0,1-10.3,9.98m0-17.014a6.9,6.9,0,0,0-6.921,7.034,6.907,6.907,0,1,0,13.813,0,6.872,6.872,0,0,0-6.892-7.034" transform="translate(114.927 10.083)" fill="#F63440"></path><path id="Pfad_11" data-name="Pfad 11" d="M127.9,21.388l4.775,6.862c.171.284.228.6-.171.6h-2.775a.652.652,0,0,1-.685-.372l-4.606-6.806h-4.288v6.835a.347.347,0,0,1-.345.343h-2.516a.347.347,0,0,1-.343-.343V9.749a.374.374,0,0,1,.343-.372h8.037a8.176,8.176,0,0,1,4.833,1.2,5.844,5.844,0,0,1,2.286,4.946,5.641,5.641,0,0,1-2.23,4.689,6.145,6.145,0,0,1-2.315,1.174m-7.75-9.295v6.892h4.633a5.663,5.663,0,0,0,3-.6,3.05,3.05,0,0,0,1.4-2.831,3.08,3.08,0,0,0-1.344-2.831,4.965,4.965,0,0,0-2.8-.629Z" transform="translate(127.424 10.217)" fill="#F63440"></path><path id="Pfad_12" data-name="Pfad 12" d="M141.369,9.377a.355.355,0,0,1,.343.372v2.115a.33.33,0,0,1-.343.343h-6.177v16.3a.354.354,0,0,1-.372.343h-2.487a.331.331,0,0,1-.345-.343v-16.3h-6.2a.329.329,0,0,1-.343-.343V9.749a.354.354,0,0,1,.343-.372Z" transform="translate(136.686 10.217)" fill="#F63440"></path></g></svg>